<svg width="170" height="50" viewBox="0 0 170 50" fill="none" xmlns="http://www.w3.org/2000/svg">
<path d="M45.4317 10.5921C40.9073 4.18333 33.4432 0 25.0001 0C11.186 0 0.0383148 11.1154 9.7459e-05 24.9294C-0.0381198 38.77 11.1684 50 25.0001 50C33.4696 50 40.9573 45.7873 45.4787 39.3433C46.2577 38.232 46.6664 36.9003 46.6664 35.5421V14.4579C46.6664 13.0733 46.2313 11.7239 45.4317 10.5921ZM18.3326 36.6416H11.6681V36.2506C14.1817 33.8458 14.167 33.3079 14.167 31.25V18.6001L15.8338 20.7167V31.25C15.8338 33.3079 15.8191 33.8429 18.3326 36.2506V36.6416ZM38.3321 13.723C35.8185 16.1277 35.8332 16.6657 35.8332 18.7235V36.6651H30.0007L11.6681 13.332H21.6664L34.1664 29.2421V18.6941C34.1664 16.6686 34.1811 16.1306 31.6675 13.723V13.332H38.335V13.723H38.3321Z" fill="white"/>
<path d="M61.1301 31.6675H53.3338V31.5058L55.2888 29.9859V20.5021L53.3338 18.4913V18.3296H59.1752V20.1229L59.2575 20.067C61.8122 18.7353 63.3585 18.165 64.9342 18.165C67.7594 18.165 68.8471 19.4702 68.8471 23.2979V29.98L70.802 31.4999V31.6616H63.0057V31.4999L64.9607 29.98V23.1362C64.9607 21.0166 64.3639 20.1199 62.5706 20.1199C61.4035 20.1199 60.3717 20.5286 59.2575 21.0166L59.1752 21.043V29.98L61.1301 31.4999V31.6675ZM71.2607 25.1734C71.2607 21.29 73.8683 18.0562 78.1868 18.0562C81.5294 18.0562 83.7283 20.0406 84.4074 23.8153L83.3491 24.0328L75.444 25.6615C75.9878 28.1074 77.59 29.8183 80.6327 29.8183C81.8557 29.8183 82.9699 29.5479 84.0546 28.9481V29.3009C82.5877 30.7943 80.6327 31.935 77.9428 31.935C74.0035 31.9379 71.2607 29.0599 71.2607 25.1734ZM75.3352 25.0382L80.3064 23.2714C80.1153 20.6373 79.3568 18.897 78.0251 18.897C76.1495 18.897 75.2264 20.9343 75.2264 23.4595C75.2264 24.0064 75.2529 24.5502 75.3352 25.0382ZM85.2217 20.0406L83.5372 18.4913V18.3296H91.36V18.4913L89.3492 20.0112L92.5536 28.7865L95.6786 20.8549L95.3258 20.0141L93.9118 18.4942V18.3325H101.382V18.4942L99.4797 20.0435L102.714 28.8717L106.083 19.9612L104.072 18.4942V18.3325H109.125V18.4942L107.279 19.9877L102.552 31.6675H100.053L96.2783 22.3483L92.4477 31.6675H89.9489L85.2217 20.0406ZM108.752 31.5851V26.9932H108.861L112.635 30.9854C113.179 31.0677 113.667 31.1206 114.264 31.1206C115.975 31.1206 116.845 30.4416 116.845 29.3538C116.845 28.6747 116.275 27.8604 114.564 27.0726L111.765 25.7673C109.646 24.7619 108.805 23.7036 108.805 21.9926C108.805 19.4673 111.277 18.0533 114.076 18.0533C115.787 18.0533 117.906 18.215 118.938 18.4619V22.6452H118.856L114.946 19.0058C114.484 18.9234 114.105 18.8705 113.749 18.8705C112.582 18.8705 111.795 19.3879 111.795 20.3375C111.795 21.2606 112.421 21.8574 114.24 22.7011L117.201 24.1416C118.994 24.9824 119.999 25.9084 119.999 27.5635C119.999 30.959 116.657 31.9379 113.832 31.9379C112.312 31.9379 110.166 31.7762 108.752 31.5851Z" fill="white"/>
<path d="M122.057 30.0623C122.057 28.9481 122.898 28.2161 123.933 28.2161C124.991 28.2161 125.835 28.9511 125.835 30.0623C125.835 31.2294 124.994 31.9379 123.933 31.9379C122.898 31.9379 122.057 31.2324 122.057 30.0623ZM133.846 31.5028L131.891 30.1711V21.1254C133.167 20.4198 134.337 20.0376 135.666 20.0376C137.432 20.0376 138.056 20.9078 138.056 23.0539V30.1711L136.101 31.5028V31.6645H143.109V31.5028L141.154 30.1711V23.0833C141.154 22.3483 141.128 21.7251 141.045 21.1812L141.128 21.1283C142.433 20.4227 143.574 20.0406 144.903 20.0406C146.696 20.0406 147.293 20.9107 147.293 23.0568V30.174L145.338 31.5058V31.6675H152.346V31.5058L150.391 30.174V23.0833C150.391 19.7143 149.738 18.3561 146.722 18.3561C144.903 18.3561 143 19.0352 141.181 20.2581L140.91 20.4492C140.502 18.9822 139.526 18.3561 137.459 18.3561C135.666 18.3561 133.764 19.0352 131.944 20.2581L131.891 20.2846V18.5178H126.864V18.6794L128.819 20.5256V30.1682L126.864 31.4999V31.6616H133.846V31.5028ZM160.463 31.5028L158.508 30.1711V21.1518L158.643 21.0989C159.919 20.5021 161.007 20.0406 162.283 20.0406C164.238 20.0406 164.946 20.9372 164.946 23.0833V30.174L162.991 31.5058V31.6675H170V31.5058L168.045 30.174V23.1362C168.045 19.5232 166.877 18.3561 164.188 18.3561C162.585 18.3561 160.927 18.9793 158.646 20.2317L158.511 20.314V18.5207H153.484V18.6824L155.439 20.5021V30.174L153.484 31.5058V31.6675H160.466V31.5028H160.463Z" fill="white"/>
</svg>
