<svg width="170" height="51" viewBox="0 0 170 51" fill="none" xmlns="http://www.w3.org/2000/svg">
<path d="M45.4317 11.3463C40.9073 4.93757 33.4432 0.754242 25.0001 0.754242C11.186 0.754242 0.0383148 11.8696 9.7459e-05 25.6837C-0.0381198 39.5242 11.1684 50.7542 25.0001 50.7542C33.4696 50.7542 40.9573 46.5415 45.4787 40.0975C46.2577 38.9863 46.6664 37.6545 46.6664 36.2963V15.2121C46.6664 13.8275 46.2313 12.4781 45.4317 11.3463ZM18.3326 37.3958H11.6681V37.0048C14.1817 34.6001 14.167 34.0621 14.167 32.0042V19.3543L15.8338 21.471V32.0042C15.8338 34.0621 15.8191 34.5971 18.3326 37.0048V37.3958ZM38.3321 14.4772C35.8185 16.8819 35.8332 17.4199 35.8332 19.4778V37.4193H30.0007L11.6681 14.0862H21.6664L34.1664 29.9964V19.4484C34.1664 17.4229 34.1811 16.8849 31.6675 14.4772V14.0862H38.335V14.4772H38.3321Z" fill="#ED1E2B"/>
<path d="M61.1301 32.4217H53.3338V32.26L55.2888 30.7401V21.2564L53.3338 19.2455V19.0839H59.1752V20.8771L59.2575 20.8213C61.8122 19.4895 63.3585 18.9192 64.9342 18.9192C67.7594 18.9192 68.8471 20.2245 68.8471 24.0521V30.7343L70.802 32.2541V32.4158H63.0057V32.2541L64.9607 30.7343V23.8904C64.9607 21.7708 64.3639 20.8742 62.5706 20.8742C61.4035 20.8742 60.3717 21.2828 59.2575 21.7708L59.1752 21.7973V30.7343L61.1301 32.2541V32.4217ZM71.2607 25.9277C71.2607 22.0442 73.8683 18.8104 78.1868 18.8104C81.5294 18.8104 83.7283 20.7948 84.4074 24.5695L83.3491 24.787L75.444 26.4157C75.9878 28.8616 77.59 30.5726 80.6327 30.5726C81.8557 30.5726 82.9699 30.3021 84.0546 29.7024V30.0552C82.5877 31.5486 80.6327 32.6892 77.9428 32.6892C74.0035 32.6922 71.2607 29.8141 71.2607 25.9277ZM75.3352 25.7925L80.3064 24.0256C80.1153 21.3916 79.3568 19.6512 78.0251 19.6512C76.1495 19.6512 75.2264 21.6885 75.2264 24.2138C75.2264 24.7606 75.2529 25.3045 75.3352 25.7925ZM85.2217 20.7948L83.5372 19.2455V19.0839H91.36V19.2455L89.3492 20.7654L92.5536 29.5407L95.6786 21.6091L95.3258 20.7684L93.9118 19.2485V19.0868H101.382V19.2485L99.4797 20.7978L102.714 29.6259L106.083 20.7154L104.072 19.2485V19.0868H109.125V19.2485L107.279 20.7419L102.552 32.4217H100.053L96.2783 23.1025L92.4477 32.4217H89.9489L85.2217 20.7948ZM108.752 32.3394V27.7474H108.861L112.635 31.7397C113.179 31.822 113.667 31.8749 114.264 31.8749C115.975 31.8749 116.845 31.1958 116.845 30.1081C116.845 29.429 116.275 28.6147 114.564 27.8268L111.765 26.5215C109.646 25.5161 108.805 24.4578 108.805 22.7468C108.805 20.2216 111.277 18.8075 114.076 18.8075C115.787 18.8075 117.906 18.9692 118.938 19.2161V23.3995H118.856L114.946 19.76C114.484 19.6777 114.105 19.6248 113.749 19.6248C112.582 19.6248 111.795 20.1422 111.795 21.0917C111.795 22.0148 112.421 22.6116 114.24 23.4553L117.201 24.8958C118.994 25.7366 119.999 26.6626 119.999 28.3177C119.999 31.7132 116.657 32.6922 113.832 32.6922C112.312 32.6922 110.166 32.5305 108.752 32.3394Z" fill="#ED1E2B"/>
<path d="M122.057 30.8166C122.057 29.7024 122.898 28.9704 123.933 28.9704C124.991 28.9704 125.835 29.7053 125.835 30.8166C125.835 31.9837 124.994 32.6922 123.933 32.6922C122.898 32.6922 122.057 31.9866 122.057 30.8166ZM133.846 32.2571L131.891 30.9253V21.8796C133.167 21.174 134.337 20.7919 135.666 20.7919C137.432 20.7919 138.056 21.662 138.056 23.8081V30.9253L136.101 32.2571V32.4187H143.109V32.2571L141.154 30.9253V23.8375C141.154 23.1025 141.128 22.4793 141.045 21.9354L141.128 21.8825C142.433 21.177 143.574 20.7948 144.903 20.7948C146.696 20.7948 147.293 21.665 147.293 23.811V30.9283L145.338 32.26V32.4217H152.346V32.26L150.391 30.9283V23.8375C150.391 20.4685 149.738 19.1103 146.722 19.1103C144.903 19.1103 143 19.7894 141.181 21.0124L140.91 21.2034C140.502 19.7365 139.526 19.1103 137.459 19.1103C135.666 19.1103 133.764 19.7894 131.944 21.0124L131.891 21.0388V19.272H126.864V19.4337L128.819 21.2799V30.9224L126.864 32.2541V32.4158H133.846V32.2571V32.2571ZM160.463 32.2571L158.508 30.9253V21.906L158.643 21.8531C159.919 21.2564 161.007 20.7948 162.283 20.7948C164.238 20.7948 164.946 21.6914 164.946 23.8375V30.9283L162.991 32.26V32.4217H170V32.26L168.045 30.9283V23.8904C168.045 20.2774 166.877 19.1103 164.188 19.1103C162.585 19.1103 160.927 19.7335 158.646 20.9859L158.511 21.0682V19.2749H153.484V19.4366L155.439 21.2564V30.9283L153.484 32.26V32.4217H160.466V32.2571H160.463Z" fill="#21295F"/>
</svg>
